<svg width="14" height="14" viewBox="0 0 14 14" fill="none" xmlns="http://www.w3.org/2000/svg">
<path d="M6.4165 1.16602H5.24984C2.33317 1.16602 1.1665 2.33268 1.1665 5.24935V8.74935C1.1665 11.666 2.33317 12.8327 5.24984 12.8327H8.74984C11.6665 12.8327 12.8332 11.666 12.8332 8.74935V7.58268" stroke="#2266EB" stroke-width="1.5" stroke-linecap="round" stroke-linejoin="round"/>
<path d="M9.35672 1.76157L4.76005 6.35824C4.58505 6.53324 4.41005 6.8774 4.37505 7.12824L4.12422 8.88407C4.03088 9.5199 4.48005 9.96324 5.11588 9.87574L6.87172 9.6249C7.11672 9.5899 7.46088 9.4149 7.64172 9.2399L12.2384 4.64324C13.0317 3.8499 13.405 2.92824 12.2384 1.76157C11.0717 0.594903 10.1501 0.968237 9.35672 1.76157Z" stroke="#2266EB" stroke-width="1.5" stroke-miterlimit="10" stroke-linecap="round" stroke-linejoin="round"/>
<path d="M8.69751 2.42041C9.08834 3.81458 10.1792 4.90541 11.5792 5.30208" stroke="#2266EB" stroke-width="1.5" stroke-miterlimit="10" stroke-linecap="round" stroke-linejoin="round"/>
</svg>
