<svg width="70" height="70" viewBox="0 0 70 70" fill="none" xmlns="http://www.w3.org/2000/svg">
<path d="M47.221 5.83325H22.7793C12.1627 5.83325 5.8335 12.1624 5.8335 22.7791V47.1916C5.8335 57.8374 12.1627 64.1666 22.7793 64.1666H47.1918C57.8085 64.1666 64.1377 57.8374 64.1377 47.2208V22.7791C64.1668 12.1624 57.8377 5.83325 47.221 5.83325ZM52.5002 37.1874H37.1877V52.4999C37.1877 53.6958 36.196 54.6874 35.0002 54.6874C33.8043 54.6874 32.8127 53.6958 32.8127 52.4999V37.1874H17.5002C16.3043 37.1874 15.3127 36.1958 15.3127 34.9999C15.3127 33.8041 16.3043 32.8124 17.5002 32.8124H32.8127V17.4999C32.8127 16.3041 33.8043 15.3124 35.0002 15.3124C36.196 15.3124 37.1877 16.3041 37.1877 17.4999V32.8124H52.5002C53.696 32.8124 54.6877 33.8041 54.6877 34.9999C54.6877 36.1958 53.696 37.1874 52.5002 37.1874Z" fill="#DFECFD"/>
</svg>
