<svg width="14" height="14" viewBox="0 0 14 14" fill="none" xmlns="http://www.w3.org/2000/svg">
<path d="M6.39943 3.55847L6.99996 4.36116L7.60049 3.55847C8.05476 2.95128 8.78148 2.55835 9.58996 2.55835C10.9631 2.55835 12.0833 3.67739 12.0833 5.06918C12.0833 5.68178 11.9857 6.24564 11.8164 6.76915L11.8164 6.76915L11.8148 6.77403C11.4077 8.06242 10.5675 9.11676 9.63851 9.91518C8.70621 10.7164 7.72765 11.2224 7.12004 11.4292L7.12003 11.4291L7.11494 11.4309C7.11339 11.4313 7.10449 11.4336 7.08737 11.436C7.06354 11.4394 7.03331 11.4417 6.99996 11.4417C6.96661 11.4417 6.93638 11.4394 6.91255 11.436C6.89591 11.4336 6.88704 11.4314 6.88513 11.4309L6.87988 11.4292C6.27227 11.2224 5.29371 10.7164 4.36141 9.91518C3.43241 9.11676 2.59224 8.06242 2.1851 6.77403L2.18512 6.77403L2.18354 6.76915C2.01417 6.24564 1.91663 5.68178 1.91663 5.06918C1.91663 3.67739 3.03684 2.55835 4.40996 2.55835C5.21844 2.55835 5.94516 2.95128 6.39943 3.55847Z" fill="#FF3232" stroke="#FF3232" stroke-width="1.5"/>
</svg>
