<svg width="14" height="15" viewBox="0 0 14 15" fill="none" xmlns="http://www.w3.org/2000/svg">
<path d="M7.00004 0.833252C3.32671 0.833252 0.333374 3.82659 0.333374 7.49992C0.333374 11.1733 3.32671 14.1666 7.00004 14.1666C10.6734 14.1666 13.6667 11.1733 13.6667 7.49992C13.6667 3.82659 10.6734 0.833252 7.00004 0.833252ZM9.66671 7.99992H7.50004V10.1666C7.50004 10.4399 7.27337 10.6666 7.00004 10.6666C6.72671 10.6666 6.50004 10.4399 6.50004 10.1666V7.99992H4.33337C4.06004 7.99992 3.83337 7.77325 3.83337 7.49992C3.83337 7.22659 4.06004 6.99992 4.33337 6.99992H6.50004V4.83325C6.50004 4.55992 6.72671 4.33325 7.00004 4.33325C7.27337 4.33325 7.50004 4.55992 7.50004 4.83325V6.99992H9.66671C9.94004 6.99992 10.1667 7.22659 10.1667 7.49992C10.1667 7.77325 9.94004 7.99992 9.66671 7.99992Z" fill="white"/>
</svg>
